# xmcd
#
# Track frame offsets:
# 150
# 13425
# 27112
# 40350
# 58187
# 72662
# 84650
# 107637
# 120212
# 132700
#
# Disc length: 1925 seconds
#
# Revision: 1
# Processed by: cddbd v1.5.1PL2 Copyright (c) Steve Scherf et al.
# Submitted via: inCDius 2.0b9
#
DISCID=9007830a
DTITLE=Various Artist - Heart and Soul
DYEAR=1900
DGENRE=
TTITLE0=How Sweet It Is To Be Loved By You - Sam and Dave
TTITLE1=Don't Pull Your Love Out On Me Baby - Sam and Dave
TTITLE2=Warm and Tender Love - Percy Sledge
TTITLE3=Try A Little Tenderness - Percy Sledge
TTITLE4=I've Been Loving You Too Long - Otis Redding
TTITLE5=I Love You A Thousand Times - The Planters
TTITLE6=Unchained Melody - The Righteous Brothers
TTITLE7=When A Man Loves A Woman - Percy Sledge
TTITLE8=You Send Me - Sam Cooke
TTITLE9=Only You - The Platters
EXTD=
EXTT0=
EXTT1=
EXTT2=
EXTT3=
EXTT4=
EXTT5=
EXTT6=
EXTT7=
EXTT8=
EXTT9=
PLAYORDER=
